<svg width="499.99999999999994" height="499.99999999999994" xmlns="http://www.w3.org/2000/svg">

 <g>
  <title>Layer 1</title>
  <path id="svg_1" stroke-width=" 20px" fill=" rgb(255, 255, 255)" stroke=" rgb(0, 0, 0)" d="m249.939,37.028l212.911,74.056l0,277.71l-212.911,74.056l-212.911,-74.056l0,-277.71l212.911,-74.056z"/>
  <path id="svg_2" fill=" rgb(255, 255, 255)" stroke-width=" 20px" stroke=" rgb(0, 0, 0)" d="m37.028,111.084l212.28,74.056l213.542,-74.056"/>
  <path id="svg_3" stroke-width=" 20px" stroke=" rgb(0, 0, 0)" fill=" rgb(216, 216, 216)" d="m249.95298,185.13998l-0.142,277.71"/>
  <path id="svg_4" stroke-width=" 10px" stroke=" rgb(0, 0, 0)" fill=" rgb(216, 216, 216)" d="m462.85002,203.65401l-213.542,74.056"/>
  <path id="svg_5" fill=" rgb(255, 255, 255)" stroke-width=" 13px" stroke=" rgb(0, 0, 0)" d="m333.252,215.414l46.352,-16.459l0,67.471l-46.125,16.868l-0.227,-67.88z"/>
  <path stroke=" rgb(0, 0, 0)" id="svg_17" d="m108.09094,172.77274l70.18182,24.45455" opacity="undefined" stroke-width="8" fill="none"/>
  <path stroke=" rgb(0, 0, 0)" id="svg_19" d="m61.01076,183.49452l161.91463,56.43802" opacity="undefined" stroke-width="8" fill="none"/>
  <path stroke=" rgb(0, 0, 0)" id="svg_20" d="m61.01076,252.00001l161.91463,56.43802" opacity="undefined" stroke-width="8" fill="none"/>
  <path stroke=" rgb(0, 0, 0)" id="svg_21" d="m61.01076,282.00001l161.91463,56.43802" opacity="undefined" stroke-width="8" fill="none"/>
  <path stroke=" rgb(0, 0, 0)" id="svg_22" d="m61.01076,312l161.91463,56.43802" opacity="undefined" stroke-width="8" fill="none"/>
  <path stroke=" rgb(0, 0, 0)" id="svg_23" d="m61.01076,342l161.91463,56.43802" opacity="undefined" stroke-width="8" fill="none"/>
  <path stroke-dasharray="2,2" stroke=" rgb(0, 0, 0)" id="svg_24" d="m61.01076,367.272l161.91463,56.43802" opacity="undefined" stroke-width="15" fill="none"/>
  <path stroke=" rgb(0, 0, 0)" id="svg_25" d="m150.27844,252l70.18182,24.45455" opacity="undefined" stroke-width="8" fill="none"/>
 </g>
</svg>